<svg t="1772537171854" class="icon" viewBox="0 0 1024 1024" version="1.1" xmlns="http://www.w3.org/2000/svg" p-id="7503" width="64" height="64"><path d="M937.593333 257.073333A148.353333 148.353333 0 0 0 832 213.333333H170.666667v-5.333333a37.373333 37.373333 0 0 0-37.333334-37.333333h-53.333333a37.373333 37.373333 0 0 0-37.333333 37.333333v565.333333a37.373333 37.373333 0 0 0 37.333333 37.333334h53.333333a37.373333 37.373333 0 0 0 37.333334-37.333334v-5.333333h213.333333v192a21.333333 21.333333 0 0 0 21.333333 21.333333h170.666667a21.333333 21.333333 0 0 0 21.333333-21.333333v-192h362.666667a21.333333 21.333333 0 0 0 21.333333-21.333333V362.666667a148.353333 148.353333 0 0 0-43.74-105.593334zM810.666667 448a64 64 0 0 1-128 0v-64H384v64a21.333333 21.333333 0 0 1-42.666667 0V362.666667a21.333333 21.333333 0 0 1 21.333334-21.333334h426.666666a21.333333 21.333333 0 0 1 21.333334 21.333334z" fill="#2c2c2c" p-id="7504"></path></svg>