<svg t="1772544866028" class="icon" viewBox="0 0 1024 1024" version="1.1" xmlns="http://www.w3.org/2000/svg" p-id="22394" width="64" height="64"><path d="M940.074667 603.52l-99.669334-172.672-11.733333-20.352 52.778667-91.392a20.309333 20.309333 0 0 0 0-20.309333l-58.666667-101.589334a20.48 20.48 0 0 0-17.578667-10.197333h-222.890666L529.493333 95.616a20.309333 20.309333 0 0 0-17.578666-10.197333h-117.333334a20.181333 20.181333 0 0 0-17.578666 10.197333L277.333333 268.288l-11.690666 20.309333H160a20.181333 20.181333 0 0 0-17.578667 10.154667l-58.666666 101.546667a20.309333 20.309333 0 0 0 0 20.352l111.488 193.024-52.821334 91.434666a20.352 20.352 0 0 0 0 20.309334l58.666667 101.589333a20.48 20.48 0 0 0 17.578667 10.154667h222.848l52.821333 91.434666a20.309333 20.309333 0 0 0 17.578667 10.154667h117.333333a20.266667 20.266667 0 0 0 17.578667-10.154667l111.445333-193.024h105.557333a20.565333 20.565333 0 0 0 17.621334-10.154666l58.624-101.546667a20.309333 20.309333 0 0 0 0-20.352zM394.666667 105.770667l58.666666 101.589333-58.666666 101.546667h469.205333l-58.624 101.589333H359.424l-70.4-121.856L394.666667 105.770667z m35.157333 711.082666H218.666667l58.709333-101.589333h117.248L160 308.906667H277.333333l58.624 101.589333 164.266667 284.458667-70.4 121.898666z m375.381333-203.178666l-58.624-101.589334-234.624 406.357334-58.666666-101.546667 58.666666-101.589333 164.224-284.458667h140.8l105.557334 182.826667h-117.333334z" p-id="22395"></path></svg>